<svg width="24" height="22" viewBox="0 0 24 22" fill="none" xmlns="http://www.w3.org/2000/svg">
<path d="M11.6667 3.4392C11.6667 3.4392 12.1871 2.6871 12.5167 2.35092C14.8641 -0.0429164 18.6699 -0.0429164 21.0172 2.35092C23.3647 4.74476 23.3647 8.62598 21.0172 11.0198L11.6667 20.5555L2.31607 11.0198C-0.0312997 8.62598 -0.0312997 4.74476 2.31607 2.35092C4.66342 -0.0429164 8.46925 -0.0429164 10.8167 2.35092C11.1462 2.6871 11.6667 3.4392 11.6667 3.4392Z" stroke="#34513A" stroke-width="1.11111" stroke-linecap="round" stroke-linejoin="round"/>
<path d="M17.6456 5.18335V6.80249H17.6476V6.80444H19.3292V7.09546H17.6476V7.09741H17.6456V8.71753H17.3429V7.09741H17.3409V7.09546H15.6593V6.80444H17.3409V6.80249H17.3429V5.18335H17.6456Z" fill="#34513A" stroke="#34513A" stroke-width="0.00340136"/>
</svg>
